<svg xmlns="http://www.w3.org/2000/svg" width="654.936" height="447.015" viewBox="0 0 654.936 447.015">
  <g id="illustration" transform="translate(-0.003 -4.538)">
    <path id="Path_486" data-name="Path 486" d="M680.609,476c-14.5,12.027-35.128,17-55.08,20.148l-3.358.512a630.517,630.517,0,0,1-63.052,5.769c-11.312.548-22.625.935-33.937,1.28l-8.865.262q-17.266.512-34.6,1.006-16.969.482-33.937.905-21.732.53-43.464.881-16.969.268-33.937.369-21.738.125-43.464-.083-16.981-.173-33.937-.6-21.744-.56-43.464-1.637-14.742-.72-29.466-1.733l-4.471-.316c-42.136-3.036-85.028-8.484-121.9-25.7l-.994-.47c-.494-.232-.988-.464-1.483-.708a133.431,133.431,0,0,1-19.386-11.366c-10.9-7.776-19.9-17.266-24.661-28.525-7.454-17.659-3.513-37.51,5-54.776s21.3-32.854,32.354-49.114c3.239-4.763,6.311-9.7,9.169-14.772,17.862-31.776,26.721-68.548,8-99.169a136.093,136.093,0,0,0-8-11.312c-4.567-5.954-9.211-11.908-12.348-18.5-7.317-15.337-5.746-32.586-3.078-48.971,3.572-21.785,10.122-45.25,30.591-58.861,21.238-14.135,51.382-13.42,77.74-8.335,40.981,7.853,78.806,24.292,116.989,39.117s78.181,28.382,120.162,29.841a191.772,191.772,0,0,0,27.019-.982h0a171.36,171.36,0,0,0,35.2-7.413c16.522-5.442,31.556-13.629,42.7-25.007C552.558,83.419,597.48,81.58,629.87,96.268c30.907,14.016,50.894,43.678,49.418,73.3-1.679,32.979-26.376,60.093-49.007,87.9-2.745,3.37-5.454,6.752-8.091,10.157q-2.209,2.852-4.334,5.716h0c-2.483,3.37-4.882,6.758-7.145,10.187-11.563,17.582-19.737,38.7-11.777,57.682,4.465,10.628,12.986,18.737,23.256,25.816,23.012,15.855,54.776,26.525,69.066,48.721C703.567,434.886,699.007,460.708,680.609,476Z" transform="translate(-43.21 -64.312)" fill="#d3dac6" opacity="0.105"/>
    <ellipse id="Ellipse_54" data-name="Ellipse 54" cx="3.953" cy="5.174" rx="3.953" ry="5.174" transform="translate(110.691 405.464)" fill="#3f3d56"/>
    <ellipse id="Ellipse_55" data-name="Ellipse 55" cx="3.953" cy="5.174" rx="3.953" ry="5.174" transform="translate(110.691 399.141)" fill="#3f3d56"/>
    <g id="Group_42" data-name="Group 42" transform="translate(81.266 330.394)">
      <ellipse id="Ellipse_48" data-name="Ellipse 48" cx="33.943" cy="6.526" rx="33.943" ry="6.526" transform="translate(0 108.108)" fill="#edac17"/>
      <ellipse id="Ellipse_49" data-name="Ellipse 49" cx="3.953" cy="5.174" rx="3.953" ry="5.174" transform="translate(29.424 106.685)" fill="#3f3d56"/>
      <ellipse id="Ellipse_50" data-name="Ellipse 50" cx="3.953" cy="5.174" rx="3.953" ry="5.174" transform="translate(29.424 100.362)" fill="#3f3d56"/>
      <ellipse id="Ellipse_51" data-name="Ellipse 51" cx="3.953" cy="5.174" rx="3.953" ry="5.174" transform="translate(29.424 94.039)" fill="#3f3d56"/>
      <ellipse id="Ellipse_52" data-name="Ellipse 52" cx="3.953" cy="5.174" rx="3.953" ry="5.174" transform="translate(29.424 87.716)" fill="#3f3d56"/>
      <ellipse id="Ellipse_53" data-name="Ellipse 53" cx="3.953" cy="5.174" rx="3.953" ry="5.174" transform="translate(29.424 81.393)" fill="#3f3d56"/>
      <path id="Path_499" data-name="Path 499" d="M237.632,646.793a19.264,19.264,0,0,0,1.471-2.167l-10.384-1.709,11.229.089a18.987,18.987,0,0,0,.363-15l-15.069,7.818,13.9-10.235a18.933,18.933,0,1,0-31.27,21.19,19.051,19.051,0,0,0-2.155,3.453l13.48,7-14.373-4.823a18.945,18.945,0,0,0,3.048,17.779,18.933,18.933,0,1,0,29.77,0,18.945,18.945,0,0,0,0-23.411Z" transform="translate(-189.459 -616.146)" fill="#edac17"/>
    </g>
    <path id="Path_500" data-name="Path 500" d="M203.82,687.09a18.857,18.857,0,0,0,4.049,11.705,18.934,18.934,0,1,0,29.77,0C240.169,695.575,203.82,684.965,203.82,687.09Z" transform="translate(-108.193 -314.343)" opacity="0.1"/>
    <g id="Group_41" data-name="Group 41" transform="translate(172.367 124.409)">
      <path id="Path_501" data-name="Path 501" d="M366.647,571.431V705.99q-14.742-.72-29.466-1.733l-4.471-.315V571.431a5.251,5.251,0,0,1,5.251-5.251H361.4a5.251,5.251,0,0,1,5.251,5.251Z" transform="translate(-332.71 -389.944)" fill="#3d574a"/>
      <path id="Path_502" data-name="Path 502" d="M462.71,646.568V420.431a5.251,5.251,0,0,1,5.251-5.251H491.4a5.251,5.251,0,0,1,5.251,5.251V647.157Z" transform="translate(-385.309 -328.848)" fill="#3d574a"/>
      <path id="Path_503" data-name="Path 503" d="M592.71,679.24V499.431a5.251,5.251,0,0,1,5.251-5.251H621.4a5.251,5.251,0,0,1,5.251,5.251V678.853Z" transform="translate(-437.908 -360.812)" fill="#3d574a"/>
      <path id="Path_504" data-name="Path 504" d="M756.647,275.431v311q-16.969.482-33.937.9V275.431a5.251,5.251,0,0,1,5.251-5.251H751.4A5.251,5.251,0,0,1,756.647,275.431Z" transform="translate(-490.507 -270.18)" fill="#3d574a"/>
      <path id="Path_505" data-name="Path 505" d="M886.647,380.431v245.9c-11.312.548-22.625.935-33.937,1.28V380.431a5.251,5.251,0,0,1,5.251-5.251H881.4A5.251,5.251,0,0,1,886.647,380.431Z" transform="translate(-543.106 -312.664)" fill="#3d574a"/>
    </g>
    <g id="Group_40" data-name="Group 40" transform="translate(172.665 34.516)">
      <path id="Path_506" data-name="Path 506" d="M318.5,265.646l77.4-86.332,77.4,43.464L550.7,89.41l77.4,63.707" transform="translate(-301.531 -72.739)" fill="none" stroke="#edac17" stroke-linecap="round" stroke-miterlimit="10" stroke-width="7"/>
      <circle id="Ellipse_56" data-name="Ellipse 56" cx="16.671" cy="16.671" r="16.671" transform="translate(0 176.236)" fill="#edac17"/>
      <circle id="Ellipse_57" data-name="Ellipse 57" cx="16.671" cy="16.671" r="16.671" transform="translate(77.401 89.904)" fill="#edac17"/>
      <circle id="Ellipse_58" data-name="Ellipse 58" cx="16.671" cy="16.671" r="16.671" transform="translate(154.802 133.368)" fill="#edac17"/>
      <circle id="Ellipse_59" data-name="Ellipse 59" cx="16.671" cy="16.671" r="16.671" transform="translate(232.203)" fill="#edac17"/>
      <circle id="Ellipse_60" data-name="Ellipse 60" cx="16.671" cy="16.671" r="16.671" transform="translate(318.68 67.162)" fill="#edac17"/>
    </g>
  </g>
</svg>
