<svg xmlns="http://www.w3.org/2000/svg" width="691.929" height="397.914" viewBox="0 0 691.929 397.914">
  <g id="illustration" transform="translate(-23.022)">
    <rect id="Rectangle_46" data-name="Rectangle 46" width="496.401" height="322.51" transform="translate(218.55 41.372)" fill="#d3dac6"/>
    <rect id="Rectangle_47" data-name="Rectangle 47" width="37.907" height="325.518" transform="translate(203.508 39.566)" fill="#b1b9a2"/>
    <rect id="Rectangle_48" data-name="Rectangle 48" width="99.28" height="1.203" transform="translate(314.22 129.219)" fill="#b1b9a2"/>
    <path id="Path_342" data-name="Path 342" d="M970.338,542.252H833.753V414.692H970.338Zm-135.382-1.2H969.134V415.9H834.956Z" transform="translate(-330.599 -238.54)" fill="#b1b9a2"/>
    <rect id="Rectangle_49" data-name="Rectangle 49" width="1.204" height="185.187" transform="matrix(0.682, -0.731, 0.731, 0.682, 503.344, 177.196)" fill="#b1b9a2"/>
    <rect id="Rectangle_50" data-name="Rectangle 50" width="185.187" height="1.204" transform="matrix(0.731, -0.682, 0.682, 0.731, 503.341, 302.669)" fill="#b1b9a2"/>
    <rect id="Rectangle_51" data-name="Rectangle 51" width="140.196" height="1.203" transform="translate(314.22 217.669)" fill="#b1b9a2"/>
    <rect id="Rectangle_52" data-name="Rectangle 52" width="140.196" height="1.203" transform="translate(314.22 239.33)" fill="#b1b9a2"/>
    <rect id="Rectangle_53" data-name="Rectangle 53" width="140.196" height="1.203" transform="translate(314.22 260.991)" fill="#b1b9a2"/>
    <circle id="Ellipse_20" data-name="Ellipse 20" cx="12.713" cy="12.713" r="12.713" transform="translate(418.283 0)" fill="#3d574a"/>
    <circle id="Ellipse_21" data-name="Ellipse 21" cx="12.713" cy="12.713" r="12.713" transform="translate(454.038 0)" fill="#d3dac6"/>
    <circle id="Ellipse_22" data-name="Ellipse 22" cx="12.713" cy="12.713" r="12.713" transform="translate(489.793 0)" fill="#adb59e"/>
    <circle id="Ellipse_23" data-name="Ellipse 23" cx="8.365" cy="8.365" r="8.365" transform="translate(102.998 131.275)" fill="#2b2a2a"/>
    <ellipse id="Ellipse_24" data-name="Ellipse 24" cx="24.005" cy="26.335" rx="24.005" ry="26.335" transform="translate(105.023 85.73)" fill="#2b2a2a"/>
    <path id="Path_343" data-name="Path 343" d="M210.148,475.869l-.62,3.1s-1.859,1.859-.929,2.789.62,5.267.62,5.267l-1.859,12.083-10.844,48.953a93.365,93.365,0,0,0-25.406,27.574c-11.154,18.28-11.464,22.927-11.464,22.927l12.393,5.267,30.983-37.489s8.675-5.267,11.773-9.914S237.1,503.753,237.1,503.753l10.844,50.192s-.62,18.28,2.169,30.053a126.1,126.1,0,0,1,3.1,22.617l14.562-1.549s-.929-44-2.479-48.643c0,0,6.506-53.6-6.506-74.978l-7.746-31.293-13.013-.62Z" transform="translate(-98.01 -250.562)" fill="#2b2a2a"/>
    <path id="Path_344" data-name="Path 344" d="M163.655,678.157l-15.491-9.6-7.126,13.632s-15.8,9.6-12.393,16.731,6.506,8.985,6.506,8.985l2.169-.93,4.028,7.436s10.534,15.182,27.575,7.436a6.227,6.227,0,0,0,0-7.436c-2.788-4.028-9.914-12.7-9.914-12.7Z" transform="translate(-87.147 -326.131)" fill="#2b2a2a"/>
    <path id="Path_345" data-name="Path 345" d="M316.764,683.69l-17.04,1.239,1.859,13.942s-8.055,19.829-2.479,21.378a81.7,81.7,0,0,0,12.083,2.169l.62-2.169s23.857,13.013,32.532,3.408c0,0,1.859-6.816-3.408-8.985s-15.491-6.816-16.731-9.295S316.764,683.69,316.764,683.69Z" transform="translate(-145.449 -331.353)" fill="#2b2a2a"/>
    <circle id="Ellipse_25" data-name="Ellipse 25" cx="14.872" cy="14.872" r="14.872" transform="translate(114.926 101.376)" fill="#fcecc6"/>
    <path id="Path_346" data-name="Path 346" d="M241.916,336.95s1.859,12.083-7.436,16.731S258.957,363.9,258.957,363.9s-5.267-8.056-4.338-10.844,5.577-13.942,5.577-13.942Z" transform="translate(-123.272 -211.717)" fill="#fcecc6"/>
    <path id="Path_347" data-name="Path 347" d="M235.457,361.149s-8.985-5.267-12.083-2.788-4.028,78.386,7.126,81.484l.31,4.028s-4.028,1.859-.31,1.859,21.068-12.7,21.688-17.35,18.59-5.577,18.59-5.577,4.647,19.829,6.2,19.209,1.549-13.942.93-15.8,7.126-7.746,4.957-11.464-8.055-16.421-8.055-16.421.62-8.055-7.746-15.491c0,0-2.445-13.84-13.461-14.046A27.84,27.84,0,0,1,235.457,361.149Z" transform="translate(-119.291 -218.875)" fill="#dd9e10"/>
    <path id="Path_348" data-name="Path 348" d="M198.233,149.855v17h3.936l5.01-5.368-.671,5.368h17.4l-1.073-5.368,2.147,5.368h2.773v-17Z" transform="translate(-83.242 -51.705)" fill="#2b2a2a"/>
    <rect id="Rectangle_55" data-name="Rectangle 55" width="128.373" height="117.239" transform="translate(23.022 250.466)" fill="#d3dac6"/>
    <path id="Path_349" data-name="Path 349" d="M212.683,608.54c-10.822,17.668-7.1,39.645-7.1,39.645s21.269-6.668,32.092-24.337,7.1-39.645,7.1-39.645S223.5,590.872,212.683,608.54Z" transform="translate(-113.647 -297.028)" fill="#3d574a"/>
    <path id="Path_350" data-name="Path 350" d="M179.321,651.118l-.615-.1c-.223-.035-22.37-3.7-35.635-19.575s-12.945-38.318-12.941-38.543l.013-.623.615.1c.222.035,22.37,3.705,35.635,19.576h0c13.264,15.87,12.945,38.318,12.941,38.543Z" transform="translate(-87.826 -299.814)" fill="#adb59e"/>
    <circle id="Ellipse_26" data-name="Ellipse 26" cx="11.958" cy="11.958" r="11.958" transform="translate(80.655 269.993)" fill="#3d574a"/>
    <path id="Path_351" data-name="Path 351" d="M207.423,476.546l3.718,27.575s-2.169,24.166,6.2,24.476,3.1-24.786,3.1-24.786l-.93-25.1S212.69,467.561,207.423,476.546Z" transform="translate(-114.495 -258.674)" fill="#fcecc6"/>
    <path id="Path_352" data-name="Path 352" d="M219.593,359.954s-2.169-5.887-6.816-1.239-8.675,16.731-8.675,24.167.929,50.5.929,50.5-4.957,1.859-1.549,4.647,8.055-1.549,8.055-1.549,6.2,4.337,6.816,4.337.31-5.267.31-5.267,3.1-8.056,2.479-14.252S219.593,359.954,219.593,359.954Z" transform="translate(-112.722 -218.61)" fill="#dd9e10"/>
    <path id="Path_353" data-name="Path 353" d="M870.492,305.585H544.372V283.322h326.12Zm-324.917-1.2H869.289V284.526H545.575Z" transform="translate(-230.753 -193.213)" fill="#b1b9a2"/>
    <path id="Path_354" data-name="Path 354" d="M135.783,560.248H103.69c2.477-9.97,2.179-20.756,0-32.094h32.093A39.9,39.9,0,0,0,135.783,560.248Z" transform="translate(-78.703 -277.688)" fill="#b1b9a2"/>
    <rect id="Rectangle_56" data-name="Rectangle 56" width="19.451" height="3.89" transform="translate(29.849 257.273)" fill="#3d574a"/>
    <rect id="Rectangle_57" data-name="Rectangle 57" width="19.451" height="3.89" transform="translate(29.849 265.054)" fill="#3d574a"/>
    <rect id="Rectangle_58" data-name="Rectangle 58" width="19.451" height="3.89" transform="translate(29.849 272.834)" fill="#3d574a"/>
    <path id="Path_355" data-name="Path 355" d="M576.783,368.247H544.69c2.477-9.97,2.178-20.756,0-32.093h32.093A39.9,39.9,0,0,0,576.783,368.247Z" transform="translate(-230.863 -211.442)" fill="#b1b9a2"/>
    <rect id="Rectangle_59" data-name="Rectangle 59" width="19.451" height="3.89" transform="translate(318.69 131.52)" fill="#3d574a"/>
    <rect id="Rectangle_60" data-name="Rectangle 60" width="19.451" height="3.89" transform="translate(318.69 139.3)" fill="#3d574a"/>
    <rect id="Rectangle_61" data-name="Rectangle 61" width="19.451" height="3.89" transform="translate(318.69 147.08)" fill="#3d574a"/>
    <path id="Path_356" data-name="Path 356" d="M945.784,442.247H913.69c2.478-9.97,2.179-20.756,0-32.093h32.094A39.893,39.893,0,0,0,945.784,442.247Z" transform="translate(-358.18 -236.975)" fill="#b1b9a2"/>
    <rect id="Rectangle_62" data-name="Rectangle 62" width="19.451" height="3.89" transform="translate(560.372 179.987)" fill="#3d574a"/>
    <rect id="Rectangle_63" data-name="Rectangle 63" width="19.451" height="3.89" transform="translate(560.372 187.768)" fill="#3d574a"/>
    <rect id="Rectangle_64" data-name="Rectangle 64" width="19.451" height="3.89" transform="translate(560.372 195.548)" fill="#3d574a"/>
    <path id="Path_357" data-name="Path 357" d="M1008.784,337.247H976.69c2.477-9.97,2.179-20.756,0-32.093h32.093A39.9,39.9,0,0,0,1008.784,337.247Z" transform="translate(-379.918 -200.746)" fill="#b1b9a2"/>
    <rect id="Rectangle_65" data-name="Rectangle 65" width="19.451" height="3.89" transform="translate(601.635 111.216)" fill="#3d574a"/>
    <rect id="Rectangle_66" data-name="Rectangle 66" width="19.451" height="3.89" transform="translate(601.635 118.996)" fill="#3d574a"/>
    <rect id="Rectangle_67" data-name="Rectangle 67" width="19.451" height="3.89" transform="translate(601.635 126.776)" fill="#3d574a"/>
    <path id="Path_358" data-name="Path 358" d="M409.223,400.683H392.194V383.654h17.029Zm-15.719-1.31h14.409V384.964H393.5Z" transform="translate(-178.247 -227.831)" fill="#3d574a"/>
    <path id="Path_359" data-name="Path 359" d="M409.719,458.683H392.69V441.654h17.029ZM394,457.373h14.409V442.964H394Z" transform="translate(-178.418 -247.843)" fill="#3d574a"/>
    <path id="Path_360" data-name="Path 360" d="M410.215,516.683H393.186V499.654h17.029Zm-15.719-1.31h14.409V500.964H394.5Z" transform="translate(-178.589 -267.855)" fill="#3d574a"/>
    <circle id="Ellipse_27" data-name="Ellipse 27" cx="5.24" cy="5.24" r="5.24" transform="translate(209.687 226.887)" fill="#d3dac6"/>
  </g>
</svg>
