<svg xmlns="http://www.w3.org/2000/svg" width="263" height="469.622" viewBox="0 0 263 469.622">
  <g id="Group_16" data-name="Group 16" transform="translate(4046 7189)">
    <path id="Path_331" data-name="Path 331" d="M26,0H237a26,26,0,0,1,26,26V383a26,26,0,0,1-26,26H26A26,26,0,0,1,0,383V26A26,26,0,0,1,26,0Z" transform="translate(-4046 -7151)" fill="#3d574a"/>
    <rect id="Rectangle_28" data-name="Rectangle 28" width="263" height="409" rx="26" transform="translate(-4046 -7189)" fill="#d3dac6"/>
    <path id="Union_3" data-name="Union 3" d="M.356,373.251c-.04-10.058.143-19.764.54-29.18.089,70.961.116,125.563-.009,125.551C.8,469.612.632,442.056.356,373.251Zm0-347.2L0,26A26,26,0,0,1,26,0H237a26.01,26.01,0,0,1,25.446,20.635l.554-.008V67.761S14.12,30.091.9,344.071C.741,219.881.4,45.563.36,26.055Z" transform="translate(-4046 -7189)" fill="#d3dac6" style="mix-blend-mode: multiply;isolation: isolate"/>
    <rect id="Rectangle_23" data-name="Rectangle 23" width="16" height="37" rx="8" transform="translate(-4018.175 -7114.214) rotate(-41)" fill="#edac17"/>
    <rect id="Rectangle_25" data-name="Rectangle 25" width="16" height="37" rx="8" transform="translate(-3924 -7145)" fill="#edac17"/>
    <rect id="Rectangle_24" data-name="Rectangle 24" width="16" height="37" rx="8" transform="translate(-3823.575 -7121.239) rotate(45)" fill="#edac17"/>
    <path id="Union_2" data-name="Union 2" d="M30,61A15,15,0,0,1,15.033,47H9A9,9,0,0,1,9,29h6V15A15,15,0,0,1,30,0H62A15,15,0,0,1,77,15V29h7a9,9,0,1,1,0,18H76.968A15,15,0,0,1,62,61Z" transform="translate(-3961 -6901)" fill="#666665"/>
    <path id="Union_1" data-name="Union 1" d="M55.33,200.619c-11.826-.2-9.748-14.038-10.347-13.985.034-16.351-10.178-30.791-17.381-38.939a85.551,85.551,0,0,1-6.387-6.509c-.363-.327-.563-.5-.563-.5l-.15-.323A85,85,0,1,1,140.943,149q-.566.689-1.143,1.381c-11.337,13.609-13.7,20.836-15.194,36.256s-8.7,13.985-8.7,13.985-21.664.09-39.612.09C67.317,200.709,59.272,200.687,55.33,200.619Z" transform="translate(-4000 -7089)" fill="#f0c970"/>
    <g id="Group_15" data-name="Group 15">
      <rect id="Rectangle_22" data-name="Rectangle 22" width="17" height="75" transform="translate(-3925 -6963)" fill="#edac17"/>
      <path id="Subtraction_1" data-name="Subtraction 1" d="M28,56A28.007,28.007,0,0,1,17.1,2.2,28.007,28.007,0,0,1,38.9,53.8,27.824,27.824,0,0,1,28,56Zm0-40a12,12,0,1,0,8.485,3.514A11.921,11.921,0,0,0,28,16Z" transform="translate(-3923 -7005)" fill="#edac17"/>
      <path id="Subtraction_2" data-name="Subtraction 2" d="M28,56A28.007,28.007,0,0,1,17.1,2.2,28.007,28.007,0,0,1,38.9,53.8,27.824,27.824,0,0,1,28,56Zm0-40a12,12,0,1,0,8.485,3.514A11.921,11.921,0,0,0,28,16Z" transform="translate(-3964 -7005)" fill="#edac17"/>
    </g>
    <path id="Path_330" data-name="Path 330" d="M-3991.341-7238.965l21.974,23.385s4.268,7.3,15.256,7.145,80.271,0,80.271,0,4.991-.116,10.741-5.272,25.055-25.258,25.055-25.258Z" transform="translate(0 50)" fill="#3d574a"/>
  </g>
</svg>
