<svg xmlns="http://www.w3.org/2000/svg" width="682.896" height="460.609" viewBox="0 0 682.896 460.609">
  <g id="illustration" transform="translate(44.833 -3.687)">
    <path id="Path_361" data-name="Path 361" d="M376.847,478.98C230.472,467.841,55.913,354.424,64.8,237.643S242.749,12.149,389.124,23.288,619.757,252.671,610.87,369.452,523.221,490.119,376.847,478.98Z" transform="translate(-109.307 -18.813)" fill="#3d574a" opacity="0.239"/>
    <ellipse id="Ellipse_28" data-name="Ellipse 28" cx="293.123" cy="16.434" rx="293.123" ry="16.434" transform="translate(51.817 382.67)" fill="#3d574a"/>
    <ellipse id="Ellipse_29" data-name="Ellipse 29" cx="253.363" cy="10.868" rx="253.363" ry="10.868" transform="translate(91.578 387.971)" opacity="0.1"/>
    <ellipse id="Ellipse_30" data-name="Ellipse 30" cx="112.492" cy="9.808" rx="112.492" ry="9.808" transform="translate(20.437 431.973)" fill="#3d574a"/>
    <ellipse id="Ellipse_31" data-name="Ellipse 31" cx="95.818" cy="6.486" rx="95.818" ry="6.486" transform="translate(37.11 435.136)" opacity="0.1"/>
    <path id="Path_400" data-name="Path 400" d="M0,0H448.139V312.782H0Z" transform="translate(124.446 84.202)" fill="#666665"/>
    <g id="Group_33" data-name="Group 33" transform="translate(219.46 124.559)">
      <path id="Path_362" data-name="Path 362" d="M512.316,263.013h-98.35a1.194,1.194,0,0,1,0-2.387h98.35a1.194,1.194,0,1,1,0,2.387Z" transform="translate(-412.533 -260.626)" fill="#d3dac6"/>
      <path id="Path_363" data-name="Path 363" d="M665.464,287.779H510.777a1.194,1.194,0,1,1,0-2.387H665.464a1.194,1.194,0,1,1,0,2.387Z" transform="translate(-458.021 -272.263)" fill="#d3dac6"/>
      <path id="Path_364" data-name="Path 364" d="M513.216,312.545h-98.35a1.194,1.194,0,0,1,0-2.387h98.35a1.194,1.194,0,1,1,0,2.387Z" transform="translate(-412.957 -283.899)" fill="#d3dac6"/>
      <path id="Path_365" data-name="Path 365" d="M715.395,313h-98.35a1.194,1.194,0,1,1,0-2.387h98.35a1.194,1.194,0,1,1,0,2.387Z" transform="translate(-507.953 -284.111)" fill="#d3dac6"/>
      <path id="Path_366" data-name="Path 366" d="M513.667,337.311h-98.35a1.194,1.194,0,1,1,0-2.387h98.35a1.194,1.194,0,1,1,0,2.387Z" transform="translate(-413.168 -295.536)" fill="#d3dac6"/>
      <path id="Path_367" data-name="Path 367" d="M514.117,362.076h-98.35a1.194,1.194,0,0,1,0-2.387h98.35a1.194,1.194,0,1,1,0,2.387Z" transform="translate(-413.38 -307.172)" fill="#d3dac6"/>
      <path id="Path_368" data-name="Path 368" d="M660.522,263.464H632.354a1.194,1.194,0,1,1,0-2.387h28.168a1.194,1.194,0,1,1,0,2.387Z" transform="translate(-515.146 -260.838)" fill="#d3dac6"/>
      <path id="Path_369" data-name="Path 369" d="M660.522,337.311H632.354a1.194,1.194,0,1,1,0-2.387h28.168a1.194,1.194,0,1,1,0,2.387Z" transform="translate(-515.146 -295.536)" fill="#d3dac6"/>
      <path id="Path_370" data-name="Path 370" d="M660.523,361.626H632.354a1.194,1.194,0,1,1,0-2.387h28.168a1.194,1.194,0,0,1,0,2.387Z" transform="translate(-515.146 -306.961)" fill="#d3dac6"/>
      <path id="Path_371" data-name="Path 371" d="M749.679,361.626H721.511a1.194,1.194,0,1,1,0-2.387h28.168a1.194,1.194,0,0,1,0,2.387Z" transform="translate(-557.037 -306.961)" fill="#d3dac6"/>
      <path id="Path_372" data-name="Path 372" d="M441.684,287.779H413.515a1.194,1.194,0,0,1,0-2.387h28.168a1.194,1.194,0,0,1,0,2.387Z" transform="translate(-412.322 -272.263)" fill="#d3dac6"/>
    </g>
    <g id="Group_34" data-name="Group 34" transform="translate(293.589 317.917)">
      <path id="Path_373" data-name="Path 373" d="M512.541,627.745h-98.35a1.194,1.194,0,1,1,0-2.387h98.35a1.194,1.194,0,1,1,0,2.387Z" transform="translate(-412.52 -625.358)" fill="#d3dac6"/>
      <path id="Path_374" data-name="Path 374" d="M511.64,677.276H413.29a1.194,1.194,0,1,1,0-2.387h98.35a1.194,1.194,0,0,1,0,2.387Z" transform="translate(-412.097 -648.631)" fill="#d3dac6"/>
      <path id="Path_375" data-name="Path 375" d="M512.091,702.042h-98.35a1.194,1.194,0,1,1,0-2.387h98.35a1.194,1.194,0,0,1,0,2.387Z" transform="translate(-412.308 -660.267)" fill="#d3dac6"/>
      <path id="Path_376" data-name="Path 376" d="M653.543,677.727H625.375a1.194,1.194,0,0,1,0-2.387h28.168a1.194,1.194,0,1,1,0,2.387Z" transform="translate(-511.747 -648.842)" fill="#d3dac6"/>
      <path id="Path_377" data-name="Path 377" d="M653.543,702.042H625.375a1.194,1.194,0,0,1,0-2.387h28.168a1.194,1.194,0,1,1,0,2.387Z" transform="translate(-511.747 -660.267)" fill="#d3dac6"/>
      <path id="Path_378" data-name="Path 378" d="M742.7,677.727H714.531a1.194,1.194,0,1,1,0-2.387H742.7a1.194,1.194,0,0,1,0,2.387Z" transform="translate(-553.638 -648.842)" fill="#d3dac6"/>
      <path id="Path_379" data-name="Path 379" d="M665.689,652.511H511a1.194,1.194,0,0,1,0-2.387H665.689a1.194,1.194,0,1,1,0,2.387Z" transform="translate(-458.008 -636.994)" fill="#d3dac6"/>
      <path id="Path_380" data-name="Path 380" d="M441.909,652.511H413.741a1.194,1.194,0,1,1,0-2.387h28.168a1.194,1.194,0,1,1,0,2.387Z" transform="translate(-412.308 -636.994)" fill="#d3dac6"/>
      <path id="Path_381" data-name="Path 381" d="M665.689,727.258H511a1.194,1.194,0,0,1,0-2.387H665.689a1.194,1.194,0,1,1,0,2.387Z" transform="translate(-458.008 -672.115)" fill="#d3dac6"/>
      <path id="Path_382" data-name="Path 382" d="M441.909,727.258H413.741a1.194,1.194,0,1,1,0-2.387h28.168a1.194,1.194,0,1,1,0,2.387Z" transform="translate(-412.308 -672.115)" fill="#d3dac6"/>
    </g>
    <path id="Path_383" data-name="Path 383" d="M485.208,401.13l-38.194,37.717,38.194,37.717,8.594-8.594-28.884-28.885,29.123-29.123Z" transform="translate(-189.598 -190.156)" fill="#edac17"/>
    <path id="Path_384" data-name="Path 384" d="M617.5,401.13l38.194,37.717L617.5,476.563l-8.594-8.594,28.885-28.885-29.123-29.123Z" transform="translate(-265.553 -190.156)" fill="#edac17"/>
    <circle id="Ellipse_32" data-name="Ellipse 32" cx="4.771" cy="4.771" r="4.771" transform="translate(130.278 87.382)" fill="#d3dac6"/>
    <circle id="Ellipse_33" data-name="Ellipse 33" cx="4.771" cy="4.771" r="4.771" transform="translate(143.001 87.382)" fill="#d3dac6"/>
    <circle id="Ellipse_34" data-name="Ellipse 34" cx="4.771" cy="4.771" r="4.771" transform="translate(155.724 87.382)" fill="#d3dac6"/>
    <path id="Path_385" data-name="Path 385" d="M1083.525,561.872c0,33.807-20.1,45.612-44.89,45.612s-44.89-11.8-44.89-45.612,44.89-76.816,44.89-76.816S1083.525,528.064,1083.525,561.872Z" transform="translate(-450.035 -241.518)" fill="#b0ba9e"/>
    <path id="Path_386" data-name="Path 386" d="M1022.442,579.812l.46-28.294,19.133-35-19.061,30.565.207-12.722,13.186-25.324-13.132,21.958h0l.372-22.881,14.12-20.162-14.062,16.564.232-41.956-1.459,55.542.12-2.291L1008.2,493.832l14.126,26.373-1.338,25.554-.04-.679-16.55-23.125,16.5,25.521-.167,3.2-.03.048.014.262-3.394,64.834h4.534l.544-33.488,16.46-25.459Z" transform="translate(-435.478 -219.018)" fill="#3f3d56"/>
    <path id="Path_387" data-name="Path 387" d="M145.869,770.833a22.868,22.868,0,0,1-4.335,1.857c-2.692.735-5.57.466-8.29,1.093a3.41,3.41,0,0,0-2.679,1.881,3.952,3.952,0,0,0,.293,2.451c3.005,8.811,4.816,18.166,9.609,26.147a39.569,39.569,0,0,0,7.418,9.006,7.072,7.072,0,0,0,3.783,2.1,3.842,3.842,0,0,0,3.907-5.4c-.43-.955-1.229-1.694-1.744-2.606a9.945,9.945,0,0,1-.965-3.706c-.473-3.768-.93-7.707.376-11.273.876-2.392,2.482-4.432,3.82-6.6s2.45-4.65,2.152-7.18a12.471,12.471,0,0,0-1.935-4.8c-.891-1.5-2.653-5.518-4.444-6.017C150.977,767.266,147.49,770,145.869,770.833Z" transform="translate(-60.426 -374.331)" fill="#2b2a2a"/>
    <path id="Path_388" data-name="Path 388" d="M248.765,821.711a7.434,7.434,0,0,1-.352,2.516c-.561,1.481-1.952,2.495-2.67,3.906-1,1.962-.546,4.333.116,6.433a6.592,6.592,0,0,0,2.074,3.5,6.834,6.834,0,0,0,3.156,1.011c9.562,1.323,19.275.564,28.924.841,1.759.051,3.621.112,5.156-.747s2.484-3.02,1.44-4.436c-.938-1.271-2.791-1.26-4.369-1.334a17.979,17.979,0,0,1-11.087-4.567,8.009,8.009,0,0,1-1.555-1.79,11,11,0,0,1-.813-1.865,83.139,83.139,0,0,0-4.815-10.666,5.649,5.649,0,0,0-2.071-2.479,5.47,5.47,0,0,0-2.247-.491c-2.4-.156-8.632-.974-10.492.9C247.441,814.166,248.8,819.516,248.765,821.711Z" transform="translate(-114.319 -394.775)" fill="#2b2a2a"/>
    <circle id="Ellipse_35" data-name="Ellipse 35" cx="15.361" cy="15.361" r="15.361" transform="translate(133.884 182.672)" fill="#fbbebe"/>
    <path id="Path_389" data-name="Path 389" d="M249.527,416.831a11.547,11.547,0,0,1-4.718,6.06l21.245,4.334a22.506,22.506,0,0,1-.3-9.473,5.457,5.457,0,0,0,.127-2.337c-.4-1.541-2.134-2.283-3.687-2.637-3.877-.884-7.306-1.358-10.91-3.07C250.185,411.592,250.339,414.657,249.527,416.831Z" transform="translate(-114.153 -206.114)" fill="#fbbebe"/>
    <path id="Path_390" data-name="Path 390" d="M227.418,422.417a16.613,16.613,0,0,1,14.48.378,32.776,32.776,0,0,1,7.195,5.74c2.042,1.97,4.221,4.226,4.366,7.061a19.785,19.785,0,0,1-.575,4.074,13.659,13.659,0,0,0,7.305,14.032c1.688,2.812,2.036,6.218,2.062,9.5.1,12.424-3.822,25-1.023,37.107.657,2.842,1.676,5.6,2.244,8.456.735,3.706.7,7.517,1.084,11.276a50.5,50.5,0,0,0,2.711,11.926,4.954,4.954,0,0,1-4.582,1.915,12.941,12.941,0,0,1-4.9-1.662c-7.487-3.831-14.345-8.884-22.1-12.14-5.13-2.154-10.6-3.5-15.573-5.984s-9.606-6.437-11.128-11.789a27.592,27.592,0,0,1-.734-7.159c-.151-10.133-.292-20.376,1.914-30.268,1.945-8.723,5.694-17.067,6.512-25.966.266-2.9.272-6,1.89-8.415C220.854,427.079,225.793,426.194,227.418,422.417Z" transform="translate(-96.94 -211.392)" fill="#af8421"/>
    <path id="Path_391" data-name="Path 391" d="M248.615,378.863c.905-1.181,2.651-1.342,4.1-.992s2.779,1.094,4.24,1.378a2.478,2.478,0,0,0,1.984-.279,2.886,2.886,0,0,0,.856-1.893,36.133,36.133,0,0,0,.356-9.214,2.729,2.729,0,0,1,.084-1.292c.362-.871,1.465-1.079,2.366-1.358a7.059,7.059,0,0,0,4.778-7.227A2.874,2.874,0,0,0,266.5,356a3.612,3.612,0,0,0-2.3-.545q-6.194-.05-12.387,0a9,9,0,0,0-4.458.813,21.652,21.652,0,0,0-2.587,2.18c-2.293,1.851-5.4,2.227-8.186,3.176a8.116,8.116,0,0,0-3.588,2.139,3.78,3.78,0,0,0-.791,3.919,13.911,13.911,0,0,0,1,1.539c1.646,2.632.55,6.045.8,9.139.307,3.864,6.025,10.132,9.9,11.046C250.159,390.887,246.543,381.4,248.615,378.863Z" transform="translate(-108.107 -180.613)" fill="#2f2e41"/>
    <path id="Path_392" data-name="Path 392" d="M244.405,695.31a45.846,45.846,0,0,1,.766,8.5c-.189,3.973-1.622,7.8-1.887,11.769-.2,2.964.26,5.96-.152,8.9-.264,1.884-.878,3.7-1.258,5.563a23.005,23.005,0,0,0,3.7,17.635,2.888,2.888,0,0,0,1.073,1.04,3.028,3.028,0,0,0,1.33.176,95.4,95.4,0,0,0,13.344-1.213,1.28,1.28,0,0,0,.857-.378,1.2,1.2,0,0,0,.186-.506c.818-4.207-1.048-8.426-1.522-12.685-.507-4.548.585-9.106,1.668-13.553a60.2,60.2,0,0,1,1.838-6.482c.524-1.43,1.156-2.821,1.61-4.275a32.588,32.588,0,0,0,1.167-7q.473-5.606.5-11.239a47.156,47.156,0,0,0-.883-10.608c-1-4.42-3.034-8.525-5.055-12.58a7.969,7.969,0,0,0-2.978,1.415,66.46,66.46,0,0,1-8.138,4.5c-1.891.878-5.578,1.5-6.778,3.332-1.183,1.805-.42,5.487-.329,7.478Q243.693,690.221,244.405,695.31Z" transform="translate(-112.568 -327.652)" fill="#2b2a2a"/>
    <path id="Path_394" data-name="Path 394" d="M189.988,605.518c-2.04,5.492.959,11.426,3.564,16.674,6.418,12.928,10.875,26.723,15.307,40.459a4.961,4.961,0,0,1,.294,3.167,4.148,4.148,0,0,1-1.5,1.774c-3.056,2.322-6.948,3.148-10.589,4.363a47.8,47.8,0,0,0-10.042,4.707c-2.638,1.635-5.11,3.522-7.577,5.406l-7.852,6a5.247,5.247,0,0,0-1.312,1.271c-.757,1.188-.447,2.739-.07,4.1a69.673,69.673,0,0,0,3.845,10.493,3.664,3.664,0,0,0,1.394,1.827c1.226.659,2.725-.215,3.661-1.244s1.745-2.311,3.065-2.753,2.768.093,4.144-.1c2.226-.312,3.7-2.363,5.308-3.937,6.555-6.431,17.5-5.965,24.711-11.651a31.384,31.384,0,0,1,3.3-2.581c1.219-.72,2.6-1.116,3.866-1.753,3.847-1.937,6.266-5.942,7.561-10.05s1.665-8.444,2.6-12.649A55,55,0,0,0,235,652.494a35.036,35.036,0,0,0-.134-6.185l-2.6-32.188c-.212-2.62-.424-5.244-.835-7.841-7.728.276-15.45.587-23.182.679C202.092,607.032,195.826,607.462,189.988,605.518Z" transform="translate(-78.919 -298.119)" fill="#2b2a2a"/>
    <path id="Path_395" data-name="Path 395" d="M201.844,608.532c1.048,1.686,3.6,1.651,5.357.727s3.122-2.477,4.883-3.393c2.366-1.231,5.167-1.185,7.833-1.11,4.222.119,8.5.246,12.557,1.4,4.2,1.2,8.291,3.5,12.635,3.041a2.6,2.6,0,0,0,1.994-.936,2.939,2.939,0,0,0,.329-1.5l.142-3.8a3.428,3.428,0,0,0-.3-1.922,3.225,3.225,0,0,0-1.44-1.1c-6.183-2.993-13.235-3.551-20.1-3.786q-5.235-.179-10.474-.148c-2.964.018-6.522-.411-9.4.381C201.987,597.451,199.882,605.377,201.844,608.532Z" transform="translate(-93.616 -293.603)" fill="#2f2e41"/>
    <path id="Path_396" data-name="Path 396" d="M239.908,427.294c-8.1-.072-15.443-5.419-23.544-5.55a6.1,6.1,0,0,0-2.859.493,10.643,10.643,0,0,0-2.729,2.6c-2.4,2.594-5.864,3.979-8.325,6.511a9.656,9.656,0,0,0-2.68,9.094c.911,3.183,4.349,5.624,7.57,4.859a19.51,19.51,0,0,1,7.6-10.327,38.642,38.642,0,0,1,5.94-3.118c3.641-1.65,7.712-3.331,11.513-2.094a16.239,16.239,0,0,1,3.928,2.142l6.337,4.257C241.923,433.244,241.259,429.978,239.908,427.294Z" transform="translate(-92.854 -211.764)" fill="#edac17"/>
    <path id="Path_397" data-name="Path 397" d="M202.562,448.325c-1.076,1.342.474,3.287.237,4.99-.158,1.132-1.089,2-1.477,3.071a16.465,16.465,0,0,0-.341,3.521,15.1,15.1,0,0,1-.676,2.507,45.048,45.048,0,0,0-1.424,7.435l-1.418,10.59a40.128,40.128,0,0,0-.449,4.813,14.368,14.368,0,0,1-.24,3.6,26.576,26.576,0,0,1-1.477,3.274,3.836,3.836,0,0,0-.053,3.459,6.046,6.046,0,0,0-1.266,7.546,4.186,4.186,0,0,1,.652,1.2,3.085,3.085,0,0,1-.287,1.771l-1.434,3.82c-.367.978-.483,2.467.537,2.69a9.016,9.016,0,0,0-1.936,3.057,3.64,3.64,0,0,0,.516,3.449,4.393,4.393,0,0,1,.9,1.09,2.9,2.9,0,0,1-.1,1.719,6.312,6.312,0,0,0,.781,4.948,4.438,4.438,0,0,0,4.463,1.913c2.868-.647,5.446-1.668,8.338-1.138a148.953,148.953,0,0,1,18.505,4.216c6.883,2.2,13.548,5.42,20.742,6.1a2.014,2.014,0,0,0,1.387-.216,2.084,2.084,0,0,0,.641-1.319L249.9,526a107.276,107.276,0,0,0,2.044-11.678c.253-2.535.325-5.084.4-7.63l.573-20.268a20.251,20.251,0,0,0-1.166-8.811l-3.3-10.522c-1.881-6-6.2-11.33-7.732-17.432-.972-3.862-1.691-8.007-4.3-11.017-3.717-4.291-10.149-4.959-15.779-4.221a18.85,18.85,0,0,0-7.308,2.227c-2.544,1.525-4.418,3.928-6.231,6.275C205.611,444.863,204.09,446.418,202.562,448.325Z" transform="translate(-89.007 -217.607)" fill="#edac17"/>
    <path id="Path_398" data-name="Path 398" d="M236.881,561.671c.464,2,1.438,3.844,2.034,5.809,1,3.292.914,6.836,1.911,10.129.418,1.382,1.025,2.708,1.325,4.121.7,3.292-.322,6.7-1.592,9.816s-2.817,6.191-3.229,9.532c-.29,2.353.127,5.01,1.94,6.537,1.883,1.585,4.619,1.478,7.071,1.267a7.432,7.432,0,0,0,2.566-.534c1.875-.887,2.665-3.107,3.1-5.135,1.469-6.8,1.049-13.84.622-20.78l-1.117-18.149A42.478,42.478,0,0,0,250,553.868c-.392-1.22-1.074-3.686-2.189-4.466s-4.257-.806-5.624-.87C235.77,548.231,235.842,557.183,236.881,561.671Z" transform="translate(-110.182 -271.34)" fill="#fbbebe"/>
    <path id="Path_399" data-name="Path 399" d="M239.373,446.582a4.415,4.415,0,0,0-4.226.373,13.026,13.026,0,0,0-3.166,3.074c-2.83,3.455-5.827,7.419-5.407,11.866a30.092,30.092,0,0,0,1.229,4.863c1.9,7.093-.2,14.595.04,21.933a68.68,68.68,0,0,0,1.981,12.553c.188.845.488,1.824,1.306,2.108a2.835,2.835,0,0,0,1.886-.292,15.041,15.041,0,0,1,13.764,1.735c1.519-.81.95-3.373.609-5.06-1.012-5.014.362-10.186,2.03-15.022s3.664-9.665,3.94-14.772c.313-5.787-1.606-11.435-3.5-16.913a5.439,5.439,0,0,0-4.581-4.536A31.6,31.6,0,0,1,239.373,446.582Z" transform="translate(-105.567 -223.26)" fill="#2f2e41"/>
  </g>
</svg>
