<svg xmlns="http://www.w3.org/2000/svg" width="26.548" height="26.7" viewBox="0 0 26.548 26.7"><path d="M831.913,633.073a1.939,1.939,0,0,1,1.4.564,1.83,1.83,0,0,1,.58,1.358v22.886a1.778,1.778,0,0,1-.58,1.343,1.931,1.931,0,0,1-1.373.55H809.3a1.925,1.925,0,0,1-1.373-.55,1.776,1.776,0,0,1-.58-1.343V634.995a1.828,1.828,0,0,1,.58-1.358,1.938,1.938,0,0,1,1.4-.564h22.581Zm-16.875,8.07a2.137,2.137,0,0,0,0-2.99,2.218,2.218,0,0,0-1.617-.594,2.273,2.273,0,0,0-1.633.594,1.978,1.978,0,0,0-.626,1.5,2,2,0,0,0,.61,1.5,2.174,2.174,0,0,0,1.587.6h.03A2.253,2.253,0,0,0,815.039,641.143Zm.366,2.244h-4V655.44h4Zm14.433,5.126a5.846,5.846,0,0,0-1.312-4.088,4.74,4.74,0,0,0-5.706-.642,4.728,4.728,0,0,0-1.19,1.313v-1.709h-4q.03.7,0,6.439v5.614h4V648.7a3,3,0,0,1,.122-.977,2.43,2.43,0,0,1,.732-1.006,2.027,2.027,0,0,1,1.343-.458,1.759,1.759,0,0,1,1.556.763,3.558,3.558,0,0,1,.458,1.954v6.468h4Z" transform="translate(-807.349 -633.073)" fill="#edac17"/></svg>