<svg xmlns="http://www.w3.org/2000/svg" width="427" height="458.166" viewBox="0 0 427 458.166">
  <g id="Group_26" data-name="Group 26" transform="translate(4869 6484)">
    <g id="Group_24" data-name="Group 24" transform="translate(-182 115)">
      <path id="Union_6" data-name="Union 6" d="M105.881,201.627H46a46,46,0,0,1-46-46V46A46,46,0,0,1,46,0H157.287a46,46,0,0,1,46,46V155.627a46,46,0,0,1-46,46h-7.323l-44.082,33.627Z" transform="translate(-4687 -6484)" fill="#2c4036"/>
      <path id="Union_7" data-name="Union 7" d="M105.377,201.627h19.913l-19.913,13.585Zm-70.377,0a35,35,0,0,1-35-35V35A35,35,0,0,1,35,0H136.757a35,35,0,0,1,35,35V166.628a35,35,0,0,1-35,35Z" transform="translate(-4687 -6484)" fill="#3d574a"/>
    </g>
    <g id="Group_25" data-name="Group 25" transform="translate(-31 284)">
      <path id="Union_6-2" data-name="Union 6" d="M78.387,149.271H20a20,20,0,0,1-20-20V20A20,20,0,0,1,20,0H130.5a20,20,0,0,1,20,20V129.271a20,20,0,0,1-20,20H111.023L78.387,174.166Z" transform="translate(-4687 -6484)" fill="#edac17"/>
      <path id="Union_7-2" data-name="Union 7" d="M78.015,149.271H92.758L78.015,159.329Zm-58.015,0a20,20,0,0,1-20-20V20A20,20,0,0,1,20,0h87.158a20,20,0,0,1,20,20V129.271a20,20,0,0,1-20,20Z" transform="translate(-4687 -6484)" fill="#f4b934"/>
    </g>
    <g id="Group_21" data-name="Group 21">
      <line id="Line_16" data-name="Line 16" x1="14" y2="90" transform="translate(-4786.5 -6309.5)" fill="none" stroke="#d3dac6" stroke-linecap="round" stroke-width="13"/>
      <line id="Line_17" data-name="Line 17" x1="14" y2="90" transform="translate(-4755.5 -6309.5)" fill="none" stroke="#d3dac6" stroke-linecap="round" stroke-width="13"/>
      <line id="Line_18" data-name="Line 18" x1="14" y2="90" transform="translate(-4808.431 -6235.956) rotate(-98)" fill="none" stroke="#d3dac6" stroke-linecap="round" stroke-width="13"/>
      <line id="Line_19" data-name="Line 19" x1="14" y2="90" transform="translate(-4807.745 -6266.654) rotate(-98)" fill="none" stroke="#d3dac6" stroke-linecap="round" stroke-width="13"/>
    </g>
    <path id="Union_4" data-name="Union 4" d="M33.525,53.676c-.3.125-.595.249-.9.373l-.863-1C4.935,43.206,1.085,27.523.78,20.587A17,17,0,0,1,32,8.622,17,17,0,0,1,63.5,17.5H64s-.2,23.1-29.926,35.942l.554.607C34.255,53.925,33.889,53.8,33.525,53.676Z" transform="translate(-4677 -6151)" fill="#313734"/>
    <g id="Group_23" data-name="Group 23">
      <g id="Group_22" data-name="Group 22">
        <path id="Union_6-3" data-name="Union 6" d="M127.607,243H46A46,46,0,0,1,0,197V46A46,46,0,0,1,46,0H199a46,46,0,0,1,46,46V197a46,46,0,0,1-46,46H180.735l-53.127,40.526Z" transform="translate(-4687 -6484)" fill="#d3dac6"/>
        <path id="Union_7-3" data-name="Union 7" d="M127,243h24l-24,16.372Zm-86,0A41,41,0,0,1,0,202V41A41,41,0,0,1,41,0H166a41,41,0,0,1,41,41V202a41,41,0,0,1-41,41Z" transform="translate(-4687 -6484)" fill="#ecf0e4"/>
      </g>
      <path id="Union_5" data-name="Union 5" d="M61.749,141.829a9.987,9.987,0,0,1-3.275-.549c-9.59-.013-19.625,0-25.938.1C17.3,141.605,0,124.159,0,124.159v-49s16.72-21.11,32.536-34.938S47.161,2.183,47.161,2.183,58.248-7.641,64.22,12.848s-7.384,43.557-7.384,43.557H84.7v.423h18.051a10,10,0,0,1,10,10v65a10,10,0,0,1-10,10Z" transform="translate(-4603.749 -6433.829)" fill="#ffd36c"/>
      <rect id="Rectangle_38" data-name="Rectangle 38" width="37" height="86" rx="5" transform="translate(-4634 -6377)" fill="#3d574a"/>
    </g>
  </g>
</svg>
