<svg xmlns="http://www.w3.org/2000/svg" width="683.255" height="466.599" viewBox="0 0 683.255 466.599">
  <g id="Group_36" data-name="Group 36" transform="translate(90.001 0)">
    <path id="Path_401" data-name="Path 401" d="M35.283,355c12.8-20.912,41.753-17.266,62.284-6.35s41.017,27.211,63.611,24.08c19.051-2.642,34.673-19.254,43.112-38.419s10.916-40.775,13.291-61.941q4.477-39.886,8.948-79.823c1.092-9.735,2.381-20.01,7.855-27.713,7.233-10.16,20.492-13.285,31.834-10.23s21.013,11.246,29.288,20.384c26.506,29.262,41.525,68.818,64.7,101.382,4.718,6.63,10.046,13.183,17.095,16.384,10.16,4.6,21.826,1.346,31.751-3.778,32.386-16.695,54.143-50.764,75.524-82.554,10.4-15.45,23.083-31.974,40.388-33.657,18.206-1.81,34.012,13.7,44.712,30.132,34.342,52.86,41.7,125.025,83.189,171.128,5.15,5.715,10.834,11,17.381,14.549a44.87,44.87,0,0,0,6.731,2.953c36.2,12.529,48.262,62.823,21.489,92.644-.578.635-1.168,1.27-1.765,1.905-3.975,4.2-8.478,8.166-13.85,9.417-5,1.156-10.16-.178-15.114-1.619-31.663-9.24-62.944-23.363-95.68-22.677-31.853.635-62.068,15.349-93.565,20.645-21.178,3.563-42.725,2.851-64.138,2.083q-106.977-3.848-213.91-8.954c-35.384-1.626-70.78-3.175-106.158-4.985-27.255-1.416-44.617-4.534-47.78-36.165C43.735,416.124,18.867,381.826,35.283,355Z" transform="translate(-119.72 -29.337)" fill="#d3dac6" opacity="0.1"/>
    <g id="hojas" transform="translate(76.99 114.959)">
      <path id="Path_402" data-name="Path 402" d="M178.46,642.952s8.382-1.905,13.875,3.728c0,0-3.531,3.175-11.837-.343Z" transform="translate(-133.862 -385.295)" fill="#edac17"/>
      <path id="Path_403" data-name="Path 403" d="M175.355,643s-4.966,7.036-1.816,14.256c0,0,4.293-2.064,4.172-11.081Z" transform="translate(-131.684 -385.426)" fill="#edac17"/>
      <path id="Path_404" data-name="Path 404" d="M168.2,624.861s2.978-6.446,17.146,1.346c0,0-1.524,4.306-7.544,4.369S169.978,628.03,168.2,624.861Z" transform="translate(-130.117 -377.892)" fill="#edac17"/>
      <path id="Path_405" data-name="Path 405" d="M162.924,625.68s-7.093-.33-6.693,15.825c0,0,4.528.635,7.354-4.687S164.911,628.747,162.924,625.68Z" transform="translate(-125.743 -379.104)" fill="#edac17"/>
      <path id="Path_406" data-name="Path 406" d="M159,602.094s3.175-11.227,18.079-4.369c0,0-2.6,10.281-16.384,8.027Z" transform="translate(-126.76 -368.092)" fill="#edac17"/>
      <path id="Path_407" data-name="Path 407" d="M150.29,577.171s6.719-11.583,20.632-2.185c0,0-3.931,10.713-19.235,6.065Z" transform="translate(-123.581 -359.261)" fill="#edac17"/>
      <path id="Path_408" data-name="Path 408" d="M146.15,553.123s8.02-10.764,21.82-1.467c0,0-7.658,9.487-21.648,4.064Z" transform="translate(-122.07 -350.707)" fill="#edac17"/>
      <path id="Path_409" data-name="Path 409" d="M142.41,529.182s8.1-11.215,21.331-2c0,0-9.322,10.052-21.166,4.49Z" transform="translate(-120.705 -341.829)" fill="#edac17"/>
      <path id="Path_410" data-name="Path 410" d="M142.23,506.268s8.351-14.307,20.734-5.823c0,0-9.157,12.428-20.556,8.421Z" transform="translate(-120.639 -332.416)" fill="#edac17"/>
      <path id="Path_411" data-name="Path 411" d="M144,481.625s8.89-14.225,21.013-4.56c0,0-10.859,12.542-20.873,7.081Z" transform="translate(-121.285 -323.636)" fill="#edac17"/>
      <path id="Path_412" data-name="Path 412" d="M147.466,457.968s10.8-13.532,21.305-9.125c0,0-11.227,14.352-21.591,12.548Z" transform="translate(-122.446 -314.242)" fill="#edac17"/>
      <path id="Path_413" data-name="Path 413" d="M152.188,435.043s12.408-16.511,20.556-11.824c0,0-9.087,12.758-21.324,14.828Z" transform="translate(-123.993 -304.906)" fill="#edac17"/>
      <path id="Path_414" data-name="Path 414" d="M159.484,410.9s10.9-13.539,19.686-10.948c0,0-9.176,13.9-21.019,15.037Z" transform="translate(-126.449 -296.6)" fill="#edac17"/>
      <path id="Path_415" data-name="Path 415" d="M166.877,387.472s12.18-13.082,17.978-11.316c0,0-8.478,14.2-18.365,14.066Z" transform="translate(-129.493 -287.976)" fill="#edac17"/>
      <path id="Path_416" data-name="Path 416" d="M173.87,364.1s10.218-15.336,16.4-14.606c0,0-5.912,13.456-16.295,16.085Z" transform="translate(-132.187 -278.296)" fill="#edac17"/>
      <path id="Path_417" data-name="Path 417" d="M180.765,336.6s9.138-11.85,14.485-12.18c0,0-6.8,15.457-14.65,15.876Z" transform="translate(-134.643 -269.153)" fill="#edac17"/>
      <path id="Path_418" data-name="Path 418" d="M184.342,310.634,192.33,286.7s1.905,21.019-8.89,28.335Z" transform="translate(-135.679 -255.387)" fill="#edac17"/>
      <path id="Path_419" data-name="Path 419" d="M187.765,271.424s.279-19.553-.845-21.064c0,0,7.919,15.711,1.359,29.662Z" transform="translate(-136.95 -242.124)" fill="#edac17"/>
      <path id="Path_420" data-name="Path 420" d="M149.32,604.97s-10.326-5.474-15.73,9.989c0,0,9.208,5.258,17.146-6.23Z" transform="translate(-117.486 -371.203)" fill="#edac17"/>
      <path id="Path_421" data-name="Path 421" d="M139.738,579.217s-12.523-4.731-17.368,11.354c0,0,9.824,5.811,18.74-7.468Z" transform="translate(-113.391 -361.91)" fill="#edac17"/>
      <path id="Path_422" data-name="Path 422" d="M132.82,555.453s-9.392-9.6-21.82,1.48c0,0,8.852,8.376,21.991,1.137Z" transform="translate(-109.241 -352.066)" fill="#edac17"/>
      <path id="Path_423" data-name="Path 423" d="M129.637,530.036s-9.525-10.04-21.407.864c0,0,10.58,8.719,21.591,1.619Z" transform="translate(-108.23 -342.658)" fill="#edac17"/>
      <path id="Path_424" data-name="Path 424" d="M130.653,506.29s-7.214-14.9-20.213-7.411c0,0,8.166,13.1,19.838,10Z" transform="translate(-109.037 -332.057)" fill="#edac17"/>
      <path id="Path_425" data-name="Path 425" d="M133.469,480.578s-7.195-15.177-20.359-7.03c0,0,9.31,13.723,19.9,9.481Z" transform="translate(-110.011 -322.704)" fill="#edac17"/>
      <path id="Path_426" data-name="Path 426" d="M141.1,453.528s-3.582-16.923-14.955-17.7c0,0,3.607,17.863,13.659,20.88Z" transform="translate(-114.77 -309.815)" fill="#edac17"/>
      <path id="Path_427" data-name="Path 427" d="M146.353,430.493s-2.331-20.518-11.723-20.613c0,0,1.365,15.6,10.865,23.591Z" transform="translate(-117.865 -300.344)" fill="#edac17"/>
      <path id="Path_428" data-name="Path 428" d="M154.249,405.766s-3.944-16.93-13-18.416c0,0,2.223,16.511,12.4,22.683Z" transform="translate(-120.281 -292.121)" fill="#edac17"/>
      <path id="Path_429" data-name="Path 429" d="M164.621,382.61s-1.27-17.825-6.922-20.08c0,0-2.292,16.371,5.493,22.467Z" transform="translate(-126.17 -283.062)" fill="#edac17"/>
      <path id="Path_430" data-name="Path 430" d="M170,360.364s-2-18.321-7.817-20.524c0,0-.953,14.663,7.049,21.781Z" transform="translate(-127.907 -274.781)" fill="#edac17"/>
      <path id="Path_431" data-name="Path 431" d="M178.828,335.378s-1.041-14.93-5.3-18.168c0,0-2.908,16.631,3.4,21.312Z" transform="translate(-131.816 -266.522)" fill="#edac17"/>
      <path id="Path_432" data-name="Path 432" d="M180.346,309.141l-5.588-24.6s-3.956,20.727,6.077,29.072Z" transform="translate(-132.23 -254.598)" fill="#edac17"/>
      <path id="Path_433" data-name="Path 433" d="M176.246,273.98s-11.2-16.053-11.107-17.921c0,0,2.248,17.451,15.5,25.331Z" transform="translate(-129 -244.204)" fill="#edac17"/>
      <path id="Path_434" data-name="Path 434" d="M175.084,262.156S164,239.047,159.57,237.39c0,0,14.028,5.988,16.263,24Z" transform="translate(-126.968 -237.39)" fill="#edac17"/>
      <g id="Group_38" data-name="Group 38" transform="translate(20.56 23.236)">
        <path id="Path_435" data-name="Path 435" d="M180.175,322.007l-.635-.159c6.255-26.671,7.138-43.487,2.477-47.348l.432-.521C187.364,278.07,186.589,294.682,180.175,322.007Z" transform="translate(-154.816 -273.98)" fill="#3d574a"/>
        <path id="Path_436" data-name="Path 436" d="M151.694,411.123l-.984-.273c.692-2.451,1.442-4.947,2.242-7.4,6.985-21.413,12.789-41.277,16.352-56.479l.806-.476c-3.569,15.241-9.214,35.835-16.187,57.267C153.129,406.208,152.38,408.685,151.694,411.123Z" transform="translate(-144.294 -300.444)" fill="#3d574a"/>
        <path id="Path_437" data-name="Path 437" d="M177.885,589.489c-.14-.133-14.11-13.888-24.842-38.254a147.563,147.563,0,0,1-11.818-44.941c-1.905-19.387.7-41.359,6.35-61.534l.813.838c-12.7,45.284-3.931,82.77,5.861,105.034,10.624,24.131,24.436,37.753,24.576,37.886Z" transform="translate(-140.606 -336.31)" fill="#3d574a"/>
      </g>
      <path id="Path_438" data-name="Path 438" d="M223.53,558.351s5.08-1.162,8.4,2.254c0,0-2.14,1.905-7.157-.21Z" transform="translate(-150.311 -354.462)" fill="#edac17"/>
      <path id="Path_439" data-name="Path 439" d="M221.668,558.39s-3,4.255-1.092,8.617c0,0,2.591-1.27,2.54-6.7Z" transform="translate(-149.002 -354.546)" fill="#edac17"/>
      <path id="Path_440" data-name="Path 440" d="M217.34,547.412s1.8-3.893,10.351.819c0,0-.921,2.6-4.559,2.635S218.426,549.329,217.34,547.412Z" transform="translate(-148.052 -349.988)" fill="#edac17"/>
      <path id="Path_441" data-name="Path 441" d="M214.146,547.91s-4.293-.2-4.052,9.564c0,0,2.737.381,4.445-2.832S215.346,549.764,214.146,547.91Z" transform="translate(-145.404 -350.72)" fill="#edac17"/>
      <path id="Path_442" data-name="Path 442" d="M211.75,533.647s1.95-6.789,10.942-2.655c0,0-1.568,6.217-9.9,4.852Z" transform="translate(-146.012 -344.059)" fill="#edac17"/>
      <path id="Path_443" data-name="Path 443" d="M206.51,518.588s4.058-6.985,12.472-1.321c0,0-2.381,6.477-11.627,3.664Z" transform="translate(-144.099 -338.728)" fill="#edac17"/>
      <path id="Path_444" data-name="Path 444" d="M204,504.045s4.852-6.509,13.19-.889c0,0-4.623,5.715-13.082,2.458Z" transform="translate(-143.183 -333.552)" fill="#edac17"/>
      <path id="Path_445" data-name="Path 445" d="M201.74,489.572s4.9-6.782,12.9-1.206c0,0-5.633,6.077-12.8,2.712Z" transform="translate(-142.358 -328.186)" fill="#edac17"/>
      <path id="Path_446" data-name="Path 446" d="M201.64,475.715s5.08-8.643,12.529-3.518c0,0-5.537,7.512-12.428,5.08Z" transform="translate(-142.322 -322.495)" fill="#edac17"/>
      <path id="Path_447" data-name="Path 447" d="M202.68,460.819s5.391-8.6,12.7-2.781c0,0-6.566,7.582-12.624,4.28Z" transform="translate(-142.702 -317.182)" fill="#edac17"/>
      <path id="Path_448" data-name="Path 448" d="M204.809,446.525s6.522-8.179,12.878-5.512c0,0-6.788,8.674-13.037,7.582Z" transform="translate(-143.421 -311.511)" fill="#edac17"/>
      <path id="Path_449" data-name="Path 449" d="M207.654,432.661s7.5-9.976,12.428-7.151c0,0-5.493,7.716-12.891,8.967Z" transform="translate(-144.348 -305.864)" fill="#edac17"/>
      <path id="Path_450" data-name="Path 450" d="M212.077,418.082s6.592-8.185,11.913-6.617c0,0-5.544,8.4-12.7,9.087Z" transform="translate(-145.844 -300.85)" fill="#edac17"/>
      <path id="Path_451" data-name="Path 451" d="M216.535,403.9s7.36-7.906,10.865-6.839c0,0-5.118,8.579-11.1,8.5Z" transform="translate(-147.672 -295.63)" fill="#edac17"/>
      <path id="Path_452" data-name="Path 452" d="M220.76,389.771s6.179-9.271,9.913-8.84c0,0-3.569,8.135-9.849,9.729Z" transform="translate(-149.3 -289.773)" fill="#edac17"/>
      <path id="Path_453" data-name="Path 453" d="M224.942,373.146s5.525-7.163,8.757-7.366c0,0-4.115,9.348-8.859,9.583Z" transform="translate(-150.789 -284.249)" fill="#edac17"/>
      <path id="Path_454" data-name="Path 454" d="M227.082,357.453,231.9,343s1.143,12.7-5.391,17.146Z" transform="translate(-151.399 -275.935)" fill="#edac17"/>
      <path id="Path_455" data-name="Path 455" d="M229.164,333.742s.165-11.818-.514-12.732c0,0,4.788,9.494.819,17.933Z" transform="translate(-152.18 -267.909)" fill="#edac17"/>
      <path id="Path_456" data-name="Path 456" d="M205.905,535.392s-6.236-3.315-9.525,6.033c0,0,5.569,3.175,10.37-3.759Z" transform="translate(-140.402 -345.944)" fill="#edac17"/>
      <path id="Path_457" data-name="Path 457" d="M200.133,519.775s-7.576-2.858-10.5,6.865c0,0,5.938,3.512,11.329-4.509Z" transform="translate(-137.939 -340.309)" fill="#edac17"/>
      <path id="Path_458" data-name="Path 458" d="M195.94,505.45s-5.671-5.8-13.19.889c0,0,5.353,5.08,13.3.686Z" transform="translate(-135.428 -334.373)" fill="#edac17"/>
      <path id="Path_459" data-name="Path 459" d="M194.022,490.087s-5.76-6.065-12.942.527c0,0,6.395,5.264,13.043.978Z" transform="translate(-134.818 -328.688)" fill="#edac17"/>
      <path id="Path_460" data-name="Path 460" d="M194.634,475.692s-4.363-9.011-12.224-4.483c0,0,4.941,7.919,12,6.045Z" transform="translate(-135.304 -322.263)" fill="#edac17"/>
      <path id="Path_461" data-name="Path 461" d="M196.326,460.173S191.976,451,184,455.924c0,0,5.626,8.3,12.034,5.715Z" transform="translate(-135.884 -316.618)" fill="#edac17"/>
      <path id="Path_462" data-name="Path 462" d="M200.953,443.85s-2.165-10.237-9.043-10.7c0,0,2.178,10.8,8.255,12.618Z" transform="translate(-138.771 -308.837)" fill="#edac17"/>
      <path id="Path_463" data-name="Path 463" d="M204.112,429.906s-1.4-12.4-7.112-12.466c0,0,.826,9.437,6.566,14.269Z" transform="translate(-140.628 -303.103)" fill="#edac17"/>
      <path id="Path_464" data-name="Path 464" d="M208.9,414.958s-2.381-10.237-7.855-11.138c0,0,1.346,9.976,7.5,13.71Z" transform="translate(-142.103 -298.132)" fill="#edac17"/>
      <path id="Path_465" data-name="Path 465" d="M215.168,400.962s-.781-10.8-4.178-12.142c0,0-1.391,9.9,3.315,13.583Z" transform="translate(-145.664 -292.658)" fill="#edac17"/>
      <path id="Path_466" data-name="Path 466" d="M218.422,387.508s-1.207-11.075-4.725-12.408c0,0-.578,8.89,4.261,13.17Z" transform="translate(-146.715 -287.65)" fill="#edac17"/>
      <path id="Path_467" data-name="Path 467" d="M223.772,372.406s-.635-9.024-3.175-10.986c0,0-1.759,10.059,2.051,12.885Z" transform="translate(-149.093 -282.657)" fill="#edac17"/>
      <path id="Path_468" data-name="Path 468" d="M224.7,356.542l-3.378-14.872s-2.394,12.535,3.67,17.578Z" transform="translate(-149.335 -275.449)" fill="#edac17"/>
      <path id="Path_469" data-name="Path 469" d="M222.2,335.294s-6.763-9.7-6.712-10.834c0,0,1.353,10.548,9.367,15.311Z" transform="translate(-147.377 -269.168)" fill="#edac17"/>
      <path id="Path_470" data-name="Path 470" d="M221.469,328.145s-6.706-13.971-9.379-14.955a18.231,18.231,0,0,1,9.83,14.517Z" transform="translate(-146.136 -265.055)" fill="#edac17"/>
    </g>
    <g id="Group_39" data-name="Group 39" transform="translate(135.677 177.122)">
      <path id="Path_471" data-name="Path 471" d="M224.56,364.313l-.4-.1c3.81-16.123,4.318-26.29,1.5-28.621l.26-.318C228.91,337.757,228.44,347.8,224.56,364.313Z" transform="translate(-209.228 -335.28)" fill="#3d574a"/>
      <path id="Path_472" data-name="Path 472" d="M207.357,418.214l-.6-.171c.419-1.48.876-2.985,1.359-4.445,4.21-12.948,7.728-24.957,9.881-34.146l.489-.292c-2.159,9.208-5.569,21.667-9.786,34.628C208.221,415.255,207.77,416.735,207.357,418.214Z" transform="translate(-202.877 -351.295)" fill="#3d574a"/>
      <path id="Path_473" data-name="Path 473" d="M223.186,526.031c-.083-.083-8.528-8.4-15.018-23.128a89.36,89.36,0,0,1-7.144-27.167c-1.162-11.723.426-25.007,3.848-37.206l.489.508c-7.677,27.376-2.375,50.04,3.543,63.5,6.427,14.606,14.771,22.817,14.86,22.9Z" transform="translate(-200.646 -372.963)" fill="#3d574a"/>
    </g>
    <g id="Group_37" data-name="Group 37" transform="translate(118.943 0)">
      <path id="Path_474" data-name="Path 474" d="M227.433,573.439a24.266,24.266,0,0,0-4.763,1.359c-34.254,13.678-33.682,103.218-33.682,103.218H178.9s-3.175-38.426-17.012-93.248c-12.466-49.323,38.661-93.527,49.043-101.909,1.168-.934,1.816-1.429,1.816-1.429C264.246,500.354,227.433,573.439,227.433,573.439Z" transform="translate(-159.947 -211.498)" fill="#9ba28f"/>
      <path id="Path_475" data-name="Path 475" d="M216.516,482.993c-1.187-.546-2.413-1.067-3.715-1.543,0,0-.635.5-1.816,1.429-10.383,8.382-61.509,52.587-49.043,101.91,13.837,54.822,16.981,93.235,16.981,93.235h5.671s-3.143-38.426-17.012-93.248C155.166,535.682,205.8,491.642,216.516,482.993Z" transform="translate(-159.965 -211.505)" fill="#fff" opacity="0.2"/>
      <path id="Path_476" data-name="Path 476" d="M488.761,584.781c-13.869,54.822-16.993,93.235-16.993,93.235h-10.1s.635-93.578-36.025-104.024a20.029,20.029,0,0,0-2.419-.565s-36.832-73.086,14.682-92c0,0,.521.387,1.461,1.143C448.906,490.212,501.366,534.887,488.761,584.781Z" transform="translate(-251.379 -211.498)" fill="#9ba28f"/>
      <path id="Path_479" data-name="Path 479" d="M359.055,432.158q-5.334,21.045-12.5,43.182s-22.683,23.629-77.474,0c0,0-5.474-15.431-11.494-41.664-13.253-57.68-29.148-167.6,4.718-280.5A420.228,420.228,0,0,1,304.963,56.36s28.932,33.218,50.167,96.8S389.879,310.689,359.055,432.158Z" transform="translate(-189.906 -56.36)" fill="#d3dac6"/>
      <circle id="Ellipse_37" data-name="Ellipse 37" cx="45.487" cy="45.487" r="45.487" transform="translate(74.173 140.957)" fill="#98a08a"/>
      <path id="Path_480" data-name="Path 480" d="M362.1,331.463a32.259,32.259,0,0,1-52.707,24.95,32.6,32.6,0,0,1-6.045-6.56,31.75,31.75,0,0,1-2.083-3.423,32.2,32.2,0,0,1-3.677-14.968v-.768a32.3,32.3,0,0,1,23.5-30.3,33.36,33.36,0,0,1,7.773-1.181h.965A32.259,32.259,0,0,1,362.1,331.463Z" transform="translate(-210.183 -144.993)" fill="#edac17"/>
      <path id="Path_481" data-name="Path 481" d="M366.754,153.157c-51.609,24.709-92.854,0-92.854,0a420.229,420.229,0,0,1,42.693-96.8S345.525,89.578,366.754,153.157Z" transform="translate(-201.537 -56.36)" fill="#9ba28f"/>
      <path id="Path_482" data-name="Path 482" d="M367.977,648.14q-3.62,14.25-8.065,28.989-2.108,7.03-4.445,14.174s-22.683,23.63-77.474,0c0,0-1.778-5.01-4.445-14.174-1.994-6.922-4.477-16.2-7.068-27.49,0,0,20.4,8.706,49.348,8.706a135.964,135.964,0,0,0,52.149-10.2Z" transform="translate(-198.828 -272.342)" fill="#9ba28f"/>
      <path id="Path_483" data-name="Path 483" d="M363.974,693.79q-2.108,7.03-4.445,14.174s-22.683,23.629-77.474,0c0,0-1.778-5.01-4.445-14.174C277.6,693.79,333.448,709.856,363.974,693.79Z" transform="translate(-202.891 -289.003)" fill="#d3dac6"/>
      <path id="Path_484" data-name="Path 484" d="M321.112,300.321l-.07.051L297.61,330.625v.768a32.2,32.2,0,0,0,3.677,14.968L328.9,299.14Z" transform="translate(-210.19 -144.968)" fill="#fff" opacity="0.2"/>
      <path id="Path_485" data-name="Path 485" d="M331.9,342.642l-19.191,28.735a32.6,32.6,0,0,1-6.046-6.56l22.861-24.538Z" transform="translate(-213.493 -159.982)" fill="#fff" opacity="0.2"/>
    </g>
  </g>
</svg>
