<svg xmlns="http://www.w3.org/2000/svg" width="34.72" height="35" viewBox="0 0 34.72 35"><g transform="translate(-951.14 -1282.001)"><path d="M977.42,1284.36a17.071,17.071,0,0,1,6.12,23.321,17.253,17.253,0,0,1-6.12,6.12,17.094,17.094,0,0,1-16.84.2l-9.44,3,3.08-9.12a17.1,17.1,0,0,1-.12-17.4,16.965,16.965,0,0,1,23.32-6.12Zm.04,19.32a1.447,1.447,0,0,0-.04-.66.773.773,0,0,0-.28-.26c.08.054-.094-.04-.52-.28q-2.56-1.239-2.84-1.32a.831.831,0,0,0-1.04.28q-.88,1.2-1.12,1.521a.977.977,0,0,1-.48.2,1.026,1.026,0,0,1-.56-.08q-.84-.359-1.24-.56a13.3,13.3,0,0,1-2.12-1.48,12.372,12.372,0,0,1-2.32-2.92.621.621,0,0,1-.08-.52,1.317,1.317,0,0,1,.24-.36l.64-.68a3.059,3.059,0,0,0,.5-.7.814.814,0,0,0-.1-.74L964.82,1292a1.383,1.383,0,0,0-.38-.561.973.973,0,0,0-.54-.12l-.48-.04a1.865,1.865,0,0,0-1.44.521,6.259,6.259,0,0,0-.92,1.12,4.886,4.886,0,0,0-.56,2.359,7.52,7.52,0,0,0,1.68,4.32q-.281-.4.44.6a13.851,13.851,0,0,0,.96,1.24q.72.842,1.48,1.6.96.881,1.92,1.6a12.045,12.045,0,0,0,2.36,1.28,16.493,16.493,0,0,0,3.44,1.119,4.351,4.351,0,0,0,1.56-.039,5.144,5.144,0,0,0,1.72-.721,2.7,2.7,0,0,0,1.12-1.319A4.441,4.441,0,0,0,977.46,1303.68Z" fill="#2b2a2a"/></g></svg>